# xmcd
#
# Track frame offsets:
#	150
#	13231
#	26044
#	38850
#	50704
#	61850
#	72090
#	83541
#	94408
#	106297
#	119651
#	130496
#	145126
#	154935
#	167070
#	178416
#	190478
#	201190
#	212326
#	221423
#	232324
#	244332
#	257174
#	267622
#
# Disc length: 3714 seconds
# Revision: 0
# Processed by: cddbd v1.5.2PL0 Copyright (c) Steve Scherf et al.
# Submitted via: dBpowerAMP V12.0
#
DISCID=790e8018
DTITLE=Kitty Wells - Country Hit Parade: Winner Of Your Heart
DYEAR=1900
DGENRE=Country
TTITLE0=Makin' Believe
TTITLE1=Release Me
TTITLE2=Cheatin's A Sin
TTITLE3=There's Poison In Your Heart
TTITLE4=I've Kissed You My Last Time
TTITLE5=Whose Shoulder Will You Cry On
TTITLE6=It Wasn't God Who Made Honky Tonk Angels
TTITLE7=The Things I Might Have Been
TTITLE8=Paying For That Back Street Affair
TTITLE9=I Don't Claim To Be An Angel
TTITLE10=I'm Too Lonely To Smile
TTITLE11=Searching For A Soldier's Grave
TTITLE12=Each Day
TTITLE13=Dancing With A Stranger
TTITLE14=A Mansion On The Hill
TTITLE15=A Change Of Heart
TTITLE16=Standing Room Only
TTITLE17=I Guess I'll Go On Dreaming
TTITLE18=The Winner Of Your Heart
TTITLE19=The Pace That Kills
TTITLE20=Stubborn Heart
TTITLE21=Right Or Wrong
TTITLE22=Broken Marriage Vows
TTITLE23=She's No Angel
EXTD=
EXTT0=
EXTT1=
EXTT2=
EXTT3=
EXTT4=
EXTT5=
EXTT6=
EXTT7=
EXTT8=
EXTT9=
EXTT10=
EXTT11=
EXTT12=
EXTT13=
EXTT14=
EXTT15=
EXTT16=
EXTT17=
EXTT18=
EXTT19=
EXTT20=
EXTT21=
EXTT22=
EXTT23=
PLAYORDER=
